<svg width="359" height="334" viewBox="0 0 359 334" fill="none" xmlns="http://www.w3.org/2000/svg">
<g clip-path="url(#clip0_17_379)">
<path d="M260.636 189.532V281.797L276.256 306.948L277.445 308.861H339.078L340.323 189.532H260.636Z" fill="#35363A"/>
<path opacity="0.1" d="M260.636 189.532V281.797L276.256 306.948L277.215 189.532H260.636Z" fill="black"/>
<path d="M111.844 187.071V279.336L96.2238 304.488L95.035 306.401H33.4018L32.1565 187.071H111.844Z" fill="#35363A"/>
<path opacity="0.1" d="M111.844 187.071V279.336L96.224 304.488L95.2654 187.071H111.844Z" fill="black"/>
<path d="M359 185.226V190.761H24.0632V182.765L55.1911 166.772H331.608L359 185.226Z" fill="#35363A"/>
<path opacity="0.1" d="M359 185.226V190.762H24.0632V182.765L359 185.226Z" fill="black"/>
<path d="M72.0006 212.905H57.0588L50.8333 208.6H78.8486L72.0006 212.905Z" fill="white"/>
<path d="M72.0006 230.743H57.0588L50.8333 226.438H78.8486L72.0006 230.743Z" fill="white"/>
<path d="M72.0006 255.963H57.0588L50.8333 251.657H78.8486L72.0006 255.963Z" fill="white"/>
<path d="M72.0006 281.182H57.0588L50.8333 276.876H78.8486L72.0006 281.182Z" fill="white"/>
<path d="M300.479 215.366H315.421L321.647 211.06H293.631L300.479 215.366Z" fill="white"/>
<path d="M300.479 233.204H315.421L321.647 228.898H293.631L300.479 233.204Z" fill="white"/>
<path d="M300.479 258.423H315.421L321.647 254.117H293.631L300.479 258.423Z" fill="white"/>
<path d="M300.479 283.642H315.421L321.647 279.336H293.631L300.479 283.642Z" fill="white"/>
<path d="M310.654 60.0768H184.868C184.243 60.0767 183.625 60.1983 183.048 60.4344C182.47 60.6706 181.946 61.0168 181.504 61.4533C181.062 61.8897 180.712 62.4079 180.473 62.9782C180.234 63.5485 180.111 64.1597 180.111 64.7769V148.495C180.111 149.112 180.234 149.723 180.473 150.294C180.712 150.864 181.062 151.382 181.504 151.819C181.946 152.255 182.47 152.601 183.048 152.837C183.625 153.074 184.243 153.195 184.868 153.195H232.618L230.829 164.48C230.829 164.48 220.605 169.846 227.794 170.004C234.982 170.161 268.847 170.004 268.847 170.004C268.847 170.004 275.396 170.004 265.013 164.322L263.33 153.195H310.654C311.279 153.195 311.898 153.074 312.475 152.837C313.052 152.601 313.576 152.255 314.018 151.819C314.46 151.382 314.81 150.864 315.049 150.294C315.288 149.723 315.411 149.112 315.411 148.495V64.7769C315.411 64.1597 315.288 63.5485 315.049 62.9782C314.81 62.4079 314.46 61.8897 314.018 61.4533C313.576 61.0168 313.052 60.6706 312.475 60.4344C311.898 60.1983 311.279 60.0767 310.654 60.0768Z" fill="#27262E"/>
<path d="M310.859 65.0484H184.664V134.808H310.859V65.0484Z" fill="#35363A"/>
<path d="M247.761 63.6279C248.202 63.6279 248.56 63.2746 248.56 62.8388C248.56 62.403 248.202 62.0497 247.761 62.0497C247.32 62.0497 246.962 62.403 246.962 62.8388C246.962 63.2746 247.32 63.6279 247.761 63.6279Z" fill="#F2F2F2"/>
<path d="M247.761 149.802C249.437 149.802 250.796 148.459 250.796 146.803C250.796 145.147 249.437 143.804 247.761 143.804C246.085 143.804 244.726 145.147 244.726 146.803C244.726 148.459 246.085 149.802 247.761 149.802Z" fill="#F2F2F2"/>
<path d="M243.032 178.526V180.105H157.091V178.842L157.209 178.526L159.328 172.845H241.275L243.032 178.526Z" fill="#828282"/>
<path d="M276.104 176.981C275.948 177.642 275.357 178.34 274.021 179C269.229 181.367 259.485 178.368 259.485 178.368C259.485 178.368 251.977 177.106 251.977 173.791C252.188 173.649 252.408 173.52 252.635 173.405C254.65 172.352 261.33 169.753 273.175 173.515C274.048 173.785 274.827 174.29 275.427 174.973C275.692 175.231 275.892 175.547 276.01 175.896C276.128 176.246 276.16 176.617 276.104 176.981Z" fill="#828282"/>
<path opacity="0.1" d="M276.104 176.981C270.239 179.202 265.01 179.368 259.645 175.685C257.616 174.203 255.159 173.404 252.635 173.405C254.65 172.352 261.33 169.753 273.175 173.515C274.048 173.785 274.827 174.29 275.427 174.973C275.693 175.231 275.892 175.547 276.01 175.896C276.128 176.246 276.16 176.617 276.104 176.981Z" fill="#828282"/>
<path d="M268.75 175.685C269.897 175.685 270.827 175.403 270.827 175.054C270.827 174.706 269.897 174.423 268.75 174.423C267.603 174.423 266.673 174.706 266.673 175.054C266.673 175.403 267.603 175.685 268.75 175.685Z" fill="#F2F2F2"/>
<path opacity="0.1" d="M243.032 178.526V180.105H157.091V178.842L157.209 178.526H243.032Z" fill="black"/>
<path d="M47.784 0.000119472C46.9118 -0.0706343 46.0385 0.122132 45.2796 0.552877C44.5346 1.05701 44.065 1.94019 43.5856 2.76204C41.7529 5.94184 39.2718 8.71093 36.2994 10.8939C34.1344 12.4609 31.3819 14.4148 31.7523 17.3041C31.9477 18.2582 32.3044 19.173 32.8076 20.01C34.8048 23.9935 40.255 27.0719 39.7189 31.6173C41.7033 28.3351 39.0491 26.7122 41.0334 23.43C41.9784 21.867 43.62 20.1026 45.0467 21.0842C45.5245 21.4128 45.8381 22.0023 46.3356 22.2907C47.5224 22.9788 48.7851 21.6633 49.8357 20.7315C53.4585 17.5182 58.6104 18.36 63.1187 19.3612C65.247 19.8338 67.5847 20.454 68.8428 22.4637C70.497 25.1062 67.2712 27.9601 66.4561 30.9476C66.3896 31.2022 66.3865 31.4689 66.447 31.7249C66.5075 31.9809 66.6299 32.2187 66.8037 32.4178C66.9774 32.6169 67.1974 32.7715 67.4449 32.8682C67.6923 32.965 67.9597 33.0012 68.2244 32.9736C69.5771 32.8417 71.1795 32.7337 71.2596 32.1472C72.9615 32.207 75.0468 32.0166 75.7761 30.2657C75.9989 29.5729 76.1167 28.8514 76.1256 28.1245C76.3933 25.1833 77.6567 22.5 78.4937 19.7007C79.3307 16.9014 79.6946 13.6208 78.2821 11.1389C77.778 10.3131 77.1546 9.56451 76.4316 8.91672C68.416 1.25265 57.8773 -0.0112569 47.784 0.000119472Z" fill="#27262E"/>
<path d="M41.4623 37.3585C41.4623 37.3585 43.2056 51.7115 36.8137 52.8598C30.4218 54.008 42.6245 73.5282 42.6245 73.5282L71.6786 76.9729L64.7056 54.008C64.7056 54.008 60.0569 52.2857 62.9623 40.8032C65.8678 29.3208 41.4623 37.3585 41.4623 37.3585Z" fill="#FFB8B8"/>
<path d="M23.7393 283.944L26.0638 315.521H38.2661L34.78 283.944H23.7393Z" fill="#FFB8B8"/>
<path d="M113.226 224.235L114.969 250.645L128.334 244.904L123.104 223.087L113.226 224.235Z" fill="#FFB8B8"/>
<path d="M15.0229 163.378C15.0229 163.378 15.604 196.677 19.0905 207.586C22.577 218.494 21.9959 219.068 21.4149 220.79C20.8338 222.513 20.2527 221.365 20.2527 224.235C20.2527 227.106 19.0905 272.461 20.2527 276.48C21.4149 280.499 16.7662 287.389 20.2527 287.963C23.7392 288.537 40.0095 287.963 40.5905 284.518C41.1716 281.073 35.9419 279.925 38.2662 277.629C40.5905 275.332 44.077 228.254 44.077 228.254L52.2122 195.529L67.3203 178.305H99.2797L109.158 216.198C109.158 216.198 105.091 227.106 107.996 227.106C110.901 227.106 128.334 230.551 128.334 217.92C128.334 205.289 122.523 167.971 121.361 166.823C120.199 165.675 121.942 161.656 120.199 159.934C118.455 158.211 98.1176 146.155 90.5635 143.858C83.0095 141.562 72.4124 138.828 72.4124 138.828L15.0229 163.378Z" fill="#27262E"/>
<path d="M128.334 240.311C128.334 240.311 119.618 237.44 115.55 246.052C111.483 254.664 113.226 256.96 113.226 256.96C113.226 256.96 126.591 261.553 128.915 259.257C129.926 258.257 133.137 257.91 136.443 257.837C141.477 257.725 142.816 250.688 138.062 249.05C137.92 249.001 137.777 248.958 137.631 248.922C132.983 247.774 128.334 240.311 128.334 240.311Z" fill="#27262E"/>
<path d="M54.5364 46.8315C64.1641 46.8315 71.9689 39.1202 71.9689 29.6078C71.9689 20.0955 64.1641 12.3842 54.5364 12.3842C44.9088 12.3842 37.104 20.0955 37.104 29.6078C37.104 39.1202 44.9088 46.8315 54.5364 46.8315Z" fill="#FFB8B8"/>
<path d="M31.8744 60.0363C31.8744 60.0363 60.3474 65.7775 67.3204 56.5916C74.2934 47.4056 77.1988 82.4271 77.1988 82.4271L80.6853 119.171L75.4555 139.265C75.4555 139.265 48.1447 161.082 39.4285 162.804C30.7123 164.527 17.3474 165.675 17.3474 165.675C17.3474 165.675 21.415 101.947 21.415 100.799C21.415 99.6507 31.8744 60.0363 31.8744 60.0363Z" fill="url(#paint0_linear_17_379)"/>
<path d="M40.5336 49.2689C40.5336 49.2689 34.1986 45.6833 32.4553 49.128C30.7121 52.5727 14.4418 61.1846 12.6986 61.1846C10.9553 61.1846 16.1851 108.837 13.8607 114.578C11.5364 120.319 0.495883 162.23 6.88778 165.675C13.2797 169.119 8.63102 162.23 15.0229 170.842C21.4148 179.454 52.7932 179.454 54.5364 176.009C56.2797 172.564 40.5905 146.729 43.4959 122.616C46.4013 98.5025 51.0499 65.2034 46.9824 60.6104C42.9148 56.0175 40.5336 49.2689 40.5336 49.2689Z" fill="#27262E"/>
<path d="M61.5095 53.1468L62.3189 50.3948C62.3189 50.3948 86.496 58.3139 87.6582 63.481C88.8203 68.6481 88.2393 104.818 84.1717 107.688C80.1041 110.559 74.2933 115.152 78.3609 122.041C82.4285 128.931 87.0771 136.395 90.5636 136.969C94.0501 137.543 100.442 141.562 98.6987 145.58C96.9555 149.599 76.0366 142.136 76.0366 142.136C76.0366 142.136 62.0906 131.802 62.6717 115.726C63.2528 99.6507 61.5095 53.1468 61.5095 53.1468Z" fill="#27262E"/>
<path d="M81.8475 120.893L67.9015 146.729C67.9015 146.729 47.5637 167.397 59.1853 169.694C70.807 171.99 77.1988 150.748 77.1988 150.748L92.3069 129.505L81.8475 120.893Z" fill="#FFB8B8"/>
<path d="M48.6332 4.5066C47.9305 4.45516 47.2267 4.59003 46.5945 4.89729C46.0229 5.30978 45.5517 5.84325 45.2155 6.45871C43.6656 8.76218 41.6452 10.7199 39.2842 12.2062C37.5218 13.3138 35.2811 14.6948 35.5827 16.7369C35.7463 17.4216 36.0377 18.0702 36.4417 18.6495C38.0732 21.4934 38.7227 24.785 38.2919 28.0262L43.1379 21.0667C43.9072 19.962 45.2435 18.7149 46.4049 19.4087C46.7938 19.641 47.0492 20.0576 47.4541 20.2615C48.4202 20.7478 49.4481 19.818 50.3033 19.1594C53.2524 16.8883 57.4464 17.4833 61.1162 18.1909C62.8488 18.525 64.7517 18.9632 65.7759 20.3837C67.4779 22.7444 65.7007 26.1553 66.694 28.8823C66.9721 28.69 67.2082 28.4444 67.3885 28.1603C67.5687 27.8761 67.6893 27.559 67.7433 27.2279C69.1287 27.2702 70.8263 27.1357 71.4199 25.8981C71.6004 25.4131 71.6966 24.9014 71.7044 24.3847C71.9223 22.3059 72.9508 20.4094 73.6321 18.4309C74.3135 16.4523 74.6097 14.1336 73.4599 12.3794C73.0393 11.785 72.5316 11.2557 71.9535 10.8088C65.4285 5.39187 56.8496 4.49856 48.6332 4.5066Z" fill="#27262E"/>
<path d="M235.817 87.9598H220.798V91.5321H235.817V87.9598Z" fill="white"/>
<path d="M287.826 87.9598H282.542V91.5321H287.826V87.9598Z" fill="white"/>
<path d="M298.395 87.9598H293.11V91.5321H298.395V87.9598Z" fill="white"/>
<path d="M276.979 87.9598H241.102V91.5321H276.979V87.9598Z" fill="white"/>
<path d="M216.905 111.042H201.886V114.615H216.905V111.042Z" fill="white"/>
<path d="M268.914 111.042H263.629V114.615H268.914V111.042Z" fill="white"/>
<path d="M279.483 111.042H274.198V114.615H279.483V111.042Z" fill="white"/>
<path d="M258.067 111.042H222.189V114.615H258.067V111.042Z" fill="white"/>
<path d="M278.926 95.9288H263.908V99.5011H278.926V95.9288Z" fill="white"/>
<path d="M299.229 95.9288H284.21V99.5011H299.229V95.9288Z" fill="white"/>
<path d="M207.17 95.9288H201.886V99.5011H207.17V95.9288Z" fill="white"/>
<path d="M217.739 95.9288H212.455V99.5011H217.739V95.9288Z" fill="white"/>
<path d="M258.901 95.9288H223.023V99.5011H258.901V95.9288Z" fill="white"/>
<path d="M247.776 103.623H232.758V107.195H247.776V103.623Z" fill="white"/>
<path d="M227.473 103.623H212.455V107.195H227.473V103.623Z" fill="white"/>
<path d="M207.17 103.623H201.886V107.195H207.17V103.623Z" fill="white"/>
<path d="M299.229 103.623H293.945V107.195H299.229V103.623Z" fill="white"/>
<path d="M288.661 103.623H252.783V107.195H288.661V103.623Z" fill="white"/>
<path d="M81.8474 61.1845L87.2614 62.6044C87.2614 62.6044 99.8609 94.4836 96.9555 116.3C94.0501 138.117 92.3068 133.524 92.3068 133.524C92.3068 133.524 87.6582 123.19 77.1987 125.486L81.8474 61.1845Z" fill="#27262E"/>
<path d="M24.5443 311.347C23.143 313.229 23.424 315.918 22.1828 317.906C21.1068 319.63 19.0791 320.533 17.7333 322.06C17.3039 322.567 16.9211 323.112 16.5894 323.686C15.341 325.752 14.3263 328.4 15.5558 330.477C16.5449 332.148 18.6238 332.801 20.5305 333.246C22.9404 333.809 25.4443 334.259 27.882 333.829C30.3197 333.399 32.7022 331.924 33.5713 329.633C33.7422 329.057 33.9452 328.491 34.1796 327.937C35.5009 325.367 39.6453 325.34 40.9975 322.785C41.9438 320.998 41.0739 318.837 40.2044 317.012L37.5486 311.437C36.6673 309.587 33.0945 310.651 31.232 310.208C28.8028 309.63 26.2918 308.993 24.5443 311.347Z" fill="#27262E"/>
<path d="M5.14453 132.376L29.5499 169.694C29.5499 169.694 44.658 188.64 49.3067 180.028C53.9553 171.416 33.0364 157.063 33.0364 157.063L17.3472 128.357L5.14453 132.376Z" fill="#FFB8B8"/>
<path d="M17.3473 62.3328L12.6987 61.1845C12.6987 61.1845 3.4014 64.0551 1.07708 76.1117C-1.24724 88.1683 0.495997 136.395 3.4014 136.969C6.30681 137.543 17.7512 128.571 19.583 130.474C21.4149 132.376 15.6041 122.616 17.3473 117.448C19.0906 112.281 17.3473 62.3328 17.3473 62.3328Z" fill="#27262E"/>
</g>
<defs>
<linearGradient id="paint0_linear_17_379" x1="49.0163" y1="55.0558" x2="49.0163" y2="165.675" gradientUnits="userSpaceOnUse">
<stop stop-color="#986DFF"/>
<stop offset="1" stop-color="#38BDF8"/>
</linearGradient>
<clipPath id="clip0_17_379">
<rect width="359" height="334" fill="white"/>
</clipPath>
</defs>
</svg>
