<svg width="418" height="272" viewBox="0 0 418 272" fill="none" xmlns="http://www.w3.org/2000/svg">
<g clip-path="url(#clip0_15_177)">
<path d="M243.484 47.9504C251.318 47.9504 257.669 42.2684 257.669 35.2593C257.669 28.2502 251.318 22.5681 243.484 22.5681C235.65 22.5681 229.299 28.2502 229.299 35.2593C229.299 42.2684 235.65 47.9504 243.484 47.9504Z" fill="#FAFF00"/>
<path d="M353.521 236.301C374.605 221.933 384.675 197.789 378.371 174.757C378.214 174.185 378.049 173.614 377.875 173.044C373.695 159.373 363.355 146.379 348.284 142.011C335.63 138.343 321.817 141.163 308.616 139.705C282.7 136.841 262.609 118.081 248.472 98.4385C234.335 78.7961 223.47 56.8093 204.685 40.5818C173.721 13.8335 123.211 8.0746 84.8205 25.4857C46.4297 42.8969 21.9752 81.525 23.0181 120.023C24.0611 158.52 49.6053 195.327 86.7019 214.855C100.33 222.029 116.092 227.111 131.778 225.333C145.389 223.79 157.756 217.247 171.302 215.304C192.601 212.25 213.764 220.865 232.185 230.905C250.607 240.945 268.401 252.846 289.334 257.5C309.661 262.02 334.843 249.029 353.521 236.301Z" fill="url(#paint0_linear_15_177)"/>
<path d="M323.228 26.2941C322.766 26.0184 322.298 25.757 321.836 25.4908C308.475 17.8458 294.155 11.6351 279.171 6.98701L275.697 49.8695H253.671V0.727178C252.284 0.470511 250.887 0.228103 249.49 -4.57764e-05V49.8695H223.315C208.906 49.8695 195.086 44.7481 184.897 35.632C174.708 26.5159 168.984 14.1517 168.984 1.25958C167.581 1.53051 166.19 1.82041 164.798 2.12936V49.8695H143.478L140.169 8.97857C124.77 14.2623 110.152 21.2106 96.638 29.6688C96.4042 29.8114 96.1705 29.9588 95.942 30.1014C94.7679 30.8381 93.6098 31.5891 92.457 32.3496V195.947H155.288L154.178 182.186L148.069 106.636H271.101L264.992 182.186L263.882 195.947H326.017V27.9482C325.092 27.3874 324.163 26.836 323.228 26.2941ZM164.798 94.1589H147.059L143.781 53.615H164.798V94.1589ZM249.49 94.1589H219.697V93.3556C219.697 92.9695 219.612 92.5871 219.447 92.2304C219.282 91.8737 219.039 91.5497 218.734 91.2769C218.428 91.004 218.066 90.7878 217.667 90.6404C217.268 90.4931 216.84 90.4176 216.409 90.4182H203.457C203.026 90.4181 202.599 90.494 202.2 90.6415C201.802 90.7891 201.44 91.0055 201.135 91.2783C200.83 91.551 200.588 91.8749 200.423 92.2314C200.258 92.5878 200.174 92.9699 200.174 93.3556V94.1589H168.984V53.615H249.49V94.1589ZM253.671 94.1589V53.615H275.394L272.116 94.1589H253.671Z" fill="#3F3D56"/>
<path d="M-3.05176e-05 206.423C4.61509 211.315 9.60687 215.913 14.9388 220.183L403.061 220.658C408.393 216.389 413.385 211.791 418 206.898L-3.05176e-05 206.423Z" fill="#3F3D56"/>
<path d="M263.198 162.362V203.098C263.199 203.617 263.43 204.115 263.84 204.482C264.25 204.849 264.806 205.055 265.387 205.056H332.858C333.438 205.055 333.995 204.849 334.405 204.482C334.815 204.115 335.046 203.617 335.046 203.098V162.362C335.045 161.843 334.814 161.346 334.404 160.98C333.994 160.613 333.438 160.407 332.858 160.406H265.387C264.807 160.407 264.251 160.613 263.841 160.98C263.431 161.346 263.2 161.843 263.198 162.362Z" fill="#3F3D56"/>
<path d="M264.781 162.869V202.595C264.782 202.873 264.905 203.139 265.124 203.335C265.343 203.531 265.641 203.641 265.951 203.642H332.296C332.606 203.641 332.904 203.531 333.123 203.335C333.342 203.139 333.465 202.873 333.466 202.595V162.869C333.466 162.591 333.343 162.325 333.123 162.128C332.904 161.932 332.607 161.821 332.296 161.82H265.951C265.64 161.821 265.343 161.932 265.124 162.128C264.904 162.325 264.781 162.591 264.781 162.869Z" fill="url(#paint1_linear_15_177)"/>
<path d="M261.787 211.042C261.911 211.181 262.068 211.293 262.247 211.369C262.426 211.446 262.621 211.485 262.82 211.484H335.066C335.263 211.484 335.458 211.445 335.637 211.368C335.815 211.292 335.972 211.182 336.097 211.044C336.221 210.907 336.31 210.747 336.356 210.575C336.403 210.403 336.406 210.224 336.365 210.051L335.244 205.285C335.197 205.091 335.097 204.91 334.953 204.759C334.808 204.608 334.624 204.492 334.416 204.421C334.266 204.368 334.106 204.341 333.944 204.341H263.937C263.775 204.341 263.615 204.368 263.465 204.421C263.257 204.492 263.073 204.608 262.928 204.759C262.784 204.91 262.684 205.091 262.637 205.285L261.516 210.051C261.476 210.224 261.48 210.403 261.526 210.574C261.573 210.746 261.663 210.906 261.787 211.042Z" fill="#2F2E41"/>
<path d="M331.465 206.394H333.172C333.315 206.394 333.431 206.29 333.431 206.162V205.432C333.431 205.304 333.315 205.2 333.172 205.2H331.465C331.322 205.2 331.206 205.304 331.206 205.432V206.162C331.206 206.29 331.322 206.394 331.465 206.394Z" fill="#3F3D56"/>
<path d="M327.015 206.394H328.722C328.865 206.394 328.981 206.29 328.981 206.162V205.432C328.981 205.304 328.865 205.2 328.722 205.2H327.015C326.872 205.2 326.756 205.304 326.756 205.432V206.162C326.756 206.29 326.872 206.394 327.015 206.394Z" fill="#3F3D56"/>
<path d="M322.565 206.394H324.271C324.414 206.394 324.531 206.29 324.531 206.162V205.432C324.531 205.304 324.414 205.2 324.271 205.2H322.565C322.422 205.2 322.305 205.304 322.305 205.432V206.162C322.305 206.29 322.422 206.394 322.565 206.394Z" fill="#3F3D56"/>
<path d="M318.115 206.394H319.821C319.964 206.394 320.08 206.29 320.08 206.162V205.432C320.08 205.304 319.964 205.2 319.821 205.2H318.115C317.971 205.2 317.855 205.304 317.855 205.432V206.162C317.855 206.29 317.971 206.394 318.115 206.394Z" fill="#3F3D56"/>
<path d="M313.664 206.394H315.371C315.514 206.394 315.63 206.29 315.63 206.162V205.432C315.63 205.304 315.514 205.2 315.371 205.2H313.664C313.521 205.2 313.405 205.304 313.405 205.432V206.162C313.405 206.29 313.521 206.394 313.664 206.394Z" fill="#3F3D56"/>
<path d="M309.214 206.394H310.92C311.064 206.394 311.18 206.29 311.18 206.162V205.432C311.18 205.304 311.064 205.2 310.92 205.2H309.214C309.071 205.2 308.955 205.304 308.955 205.432V206.162C308.955 206.29 309.071 206.394 309.214 206.394Z" fill="#3F3D56"/>
<path d="M304.764 206.394H306.47C306.613 206.394 306.729 206.29 306.729 206.162V205.432C306.729 205.304 306.613 205.2 306.47 205.2H304.764C304.62 205.2 304.504 205.304 304.504 205.432V206.162C304.504 206.29 304.62 206.394 304.764 206.394Z" fill="#3F3D56"/>
<path d="M300.313 206.394H302.02C302.163 206.394 302.279 206.29 302.279 206.162V205.432C302.279 205.304 302.163 205.2 302.02 205.2H300.313C300.17 205.2 300.054 205.304 300.054 205.432V206.162C300.054 206.29 300.17 206.394 300.313 206.394Z" fill="#3F3D56"/>
<path d="M295.863 206.394H297.569C297.713 206.394 297.829 206.29 297.829 206.162V205.432C297.829 205.304 297.713 205.2 297.569 205.2H295.863C295.72 205.2 295.604 205.304 295.604 205.432V206.162C295.604 206.29 295.72 206.394 295.863 206.394Z" fill="#3F3D56"/>
<path d="M291.413 206.394H293.119C293.262 206.394 293.379 206.29 293.379 206.162V205.432C293.379 205.304 293.262 205.2 293.119 205.2H291.413C291.27 205.2 291.153 205.304 291.153 205.432V206.162C291.153 206.29 291.27 206.394 291.413 206.394Z" fill="#3F3D56"/>
<path d="M286.962 206.394H288.669C288.812 206.394 288.928 206.29 288.928 206.162V205.432C288.928 205.304 288.812 205.2 288.669 205.2H286.962C286.819 205.2 286.703 205.304 286.703 205.432V206.162C286.703 206.29 286.819 206.394 286.962 206.394Z" fill="#3F3D56"/>
<path d="M282.512 206.394H284.219C284.362 206.394 284.478 206.29 284.478 206.162V205.432C284.478 205.304 284.362 205.2 284.219 205.2H282.512C282.369 205.2 282.253 205.304 282.253 205.432V206.162C282.253 206.29 282.369 206.394 282.512 206.394Z" fill="#3F3D56"/>
<path d="M278.062 206.394H279.768C279.912 206.394 280.028 206.29 280.028 206.162V205.432C280.028 205.304 279.912 205.2 279.768 205.2H278.062C277.919 205.2 277.803 205.304 277.803 205.432V206.162C277.803 206.29 277.919 206.394 278.062 206.394Z" fill="#3F3D56"/>
<path d="M273.612 206.394H275.318C275.461 206.394 275.577 206.29 275.577 206.162V205.432C275.577 205.304 275.461 205.2 275.318 205.2H273.612C273.468 205.2 273.352 205.304 273.352 205.432V206.162C273.352 206.29 273.468 206.394 273.612 206.394Z" fill="#3F3D56"/>
<path d="M269.161 206.394H270.868C271.011 206.394 271.127 206.29 271.127 206.162V205.432C271.127 205.304 271.011 205.2 270.868 205.2H269.161C269.018 205.2 268.902 205.304 268.902 205.432V206.162C268.902 206.29 269.018 206.394 269.161 206.394Z" fill="#3F3D56"/>
<path d="M264.711 206.394H266.417C266.561 206.394 266.677 206.29 266.677 206.162V205.432C266.677 205.304 266.561 205.2 266.417 205.2H264.711C264.568 205.2 264.452 205.304 264.452 205.432V206.162C264.452 206.29 264.568 206.394 264.711 206.394Z" fill="#3F3D56"/>
<path d="M331.518 208.385H333.224C333.368 208.385 333.484 208.281 333.484 208.153V207.423C333.484 207.294 333.368 207.19 333.224 207.19H331.518C331.375 207.19 331.259 207.294 331.259 207.423V208.153C331.259 208.281 331.375 208.385 331.518 208.385Z" fill="#3F3D56"/>
<path d="M327.068 208.385H328.774C328.917 208.385 329.033 208.281 329.033 208.153V207.423C329.033 207.294 328.917 207.19 328.774 207.19H327.068C326.924 207.19 326.808 207.294 326.808 207.423V208.153C326.808 208.281 326.924 208.385 327.068 208.385Z" fill="#3F3D56"/>
<path d="M322.617 208.385H324.324C324.467 208.385 324.583 208.281 324.583 208.153V207.423C324.583 207.294 324.467 207.19 324.324 207.19H322.617C322.474 207.19 322.358 207.294 322.358 207.423V208.153C322.358 208.281 322.474 208.385 322.617 208.385Z" fill="#3F3D56"/>
<path d="M318.167 208.385H319.874C320.017 208.385 320.133 208.281 320.133 208.153V207.423C320.133 207.294 320.017 207.19 319.874 207.19H318.167C318.024 207.19 317.908 207.294 317.908 207.423V208.153C317.908 208.281 318.024 208.385 318.167 208.385Z" fill="#3F3D56"/>
<path d="M313.717 208.385H315.423C315.566 208.385 315.683 208.281 315.683 208.153V207.423C315.683 207.294 315.566 207.19 315.423 207.19H313.717C313.574 207.19 313.457 207.294 313.457 207.423V208.153C313.457 208.281 313.574 208.385 313.717 208.385Z" fill="#3F3D56"/>
<path d="M309.266 208.385H310.973C311.116 208.385 311.232 208.281 311.232 208.153V207.423C311.232 207.294 311.116 207.19 310.973 207.19H309.266C309.123 207.19 309.007 207.294 309.007 207.423V208.153C309.007 208.281 309.123 208.385 309.266 208.385Z" fill="#3F3D56"/>
<path d="M304.816 208.385H306.523C306.666 208.385 306.782 208.281 306.782 208.153V207.423C306.782 207.294 306.666 207.19 306.523 207.19H304.816C304.673 207.19 304.557 207.294 304.557 207.423V208.153C304.557 208.281 304.673 208.385 304.816 208.385Z" fill="#3F3D56"/>
<path d="M300.366 208.385H302.072C302.216 208.385 302.332 208.281 302.332 208.153V207.423C302.332 207.294 302.216 207.19 302.072 207.19H300.366C300.223 207.19 300.107 207.294 300.107 207.423V208.153C300.107 208.281 300.223 208.385 300.366 208.385Z" fill="#3F3D56"/>
<path d="M295.916 208.385H297.622C297.765 208.385 297.881 208.281 297.881 208.153V207.423C297.881 207.294 297.765 207.19 297.622 207.19H295.916C295.772 207.19 295.656 207.294 295.656 207.423V208.153C295.656 208.281 295.772 208.385 295.916 208.385Z" fill="#3F3D56"/>
<path d="M291.465 208.385H293.172C293.315 208.385 293.431 208.281 293.431 208.153V207.423C293.431 207.294 293.315 207.19 293.172 207.19H291.465C291.322 207.19 291.206 207.294 291.206 207.423V208.153C291.206 208.281 291.322 208.385 291.465 208.385Z" fill="#3F3D56"/>
<path d="M287.015 208.385H288.721C288.865 208.385 288.981 208.281 288.981 208.153V207.423C288.981 207.294 288.865 207.19 288.721 207.19H287.015C286.872 207.19 286.756 207.294 286.756 207.423V208.153C286.756 208.281 286.872 208.385 287.015 208.385Z" fill="#3F3D56"/>
<path d="M282.565 208.385H284.271C284.414 208.385 284.531 208.281 284.531 208.153V207.423C284.531 207.294 284.414 207.19 284.271 207.19H282.565C282.422 207.19 282.305 207.294 282.305 207.423V208.153C282.305 208.281 282.422 208.385 282.565 208.385Z" fill="#3F3D56"/>
<path d="M278.114 208.385H279.821C279.964 208.385 280.08 208.281 280.08 208.153V207.423C280.08 207.294 279.964 207.19 279.821 207.19H278.114C277.971 207.19 277.855 207.294 277.855 207.423V208.153C277.855 208.281 277.971 208.385 278.114 208.385Z" fill="#3F3D56"/>
<path d="M273.664 208.385H275.371C275.514 208.385 275.63 208.281 275.63 208.153V207.423C275.63 207.294 275.514 207.19 275.371 207.19H273.664C273.521 207.19 273.405 207.294 273.405 207.423V208.153C273.405 208.281 273.521 208.385 273.664 208.385Z" fill="#3F3D56"/>
<path d="M269.214 208.385H270.92C271.064 208.385 271.18 208.281 271.18 208.153V207.423C271.18 207.294 271.064 207.19 270.92 207.19H269.214C269.071 207.19 268.955 207.294 268.955 207.423V208.153C268.955 208.281 269.071 208.385 269.214 208.385Z" fill="#3F3D56"/>
<path d="M264.764 208.385H266.47C266.613 208.385 266.729 208.281 266.729 208.153V207.423C266.729 207.294 266.613 207.19 266.47 207.19H264.764C264.62 207.19 264.504 207.294 264.504 207.423V208.153C264.504 208.281 264.62 208.385 264.764 208.385Z" fill="#3F3D56"/>
<path d="M294.581 210.774H311.863C312.006 210.774 312.122 210.67 312.122 210.542V209.812C312.122 209.683 312.006 209.58 311.863 209.58H294.581C294.437 209.58 294.321 209.683 294.321 209.812V210.542C294.321 210.67 294.437 210.774 294.581 210.774Z" fill="#3F3D56"/>
<path d="M276.27 170.511H274.76C274.302 170.511 273.93 170.844 273.93 171.253C273.93 171.663 274.302 171.995 274.76 171.995H276.27C276.728 171.995 277.1 171.663 277.1 171.253C277.1 170.844 276.728 170.511 276.27 170.511Z" fill="white"/>
<path d="M293.548 170.511H292.037C291.579 170.511 291.208 170.844 291.208 171.253C291.208 171.663 291.579 171.995 292.037 171.995H293.548C294.006 171.995 294.378 171.663 294.378 171.253C294.378 170.844 294.006 170.511 293.548 170.511Z" fill="white"/>
<path d="M298.444 170.511H296.933C296.475 170.511 296.104 170.844 296.104 171.253C296.104 171.663 296.475 171.995 296.933 171.995H298.444C298.902 171.995 299.273 171.663 299.273 171.253C299.273 170.844 298.902 170.511 298.444 170.511Z" fill="white"/>
<path d="M288.849 170.388H279.459C279.001 170.388 278.63 170.72 278.63 171.13C278.63 171.54 279.001 171.872 279.459 171.872H288.849C289.307 171.872 289.678 171.54 289.678 171.13C289.678 170.72 289.307 170.388 288.849 170.388Z" fill="white"/>
<path d="M311.886 170.388H302.496C302.038 170.388 301.667 170.72 301.667 171.13C301.667 171.54 302.038 171.872 302.496 171.872H311.886C312.344 171.872 312.715 171.54 312.715 171.13C312.715 170.72 312.344 170.388 311.886 170.388Z" fill="white"/>
<path d="M280.878 173.861H279.367C278.909 173.861 278.538 174.193 278.538 174.603C278.538 175.013 278.909 175.345 279.367 175.345H280.878C281.336 175.345 281.707 175.013 281.707 174.603C281.707 174.193 281.336 173.861 280.878 173.861Z" fill="white"/>
<path d="M298.156 173.861H296.645C296.187 173.861 295.816 174.193 295.816 174.603C295.816 175.013 296.187 175.345 296.645 175.345H298.156C298.614 175.345 298.985 175.013 298.985 174.603C298.985 174.193 298.614 173.861 298.156 173.861Z" fill="white"/>
<path d="M303.051 173.861H301.54C301.082 173.861 300.711 174.193 300.711 174.603C300.711 175.013 301.082 175.345 301.54 175.345H303.051C303.509 175.345 303.88 175.013 303.88 174.603C303.88 174.193 303.509 173.861 303.051 173.861Z" fill="white"/>
<path d="M293.456 173.737H284.067C283.609 173.737 283.237 174.069 283.237 174.479C283.237 174.889 283.609 175.221 284.067 175.221H293.456C293.914 175.221 294.285 174.889 294.285 174.479C294.285 174.069 293.914 173.737 293.456 173.737Z" fill="white"/>
<path d="M316.493 173.737H307.104C306.646 173.737 306.275 174.069 306.275 174.479C306.275 174.889 306.646 175.221 307.104 175.221H316.493C316.951 175.221 317.323 174.889 317.323 174.479C317.323 174.069 316.951 173.737 316.493 173.737Z" fill="white"/>
<path d="M285.485 177.21H283.974C283.516 177.21 283.145 177.542 283.145 177.952C283.145 178.362 283.516 178.694 283.974 178.694H285.485C285.943 178.694 286.314 178.362 286.314 177.952C286.314 177.542 285.943 177.21 285.485 177.21Z" fill="white"/>
<path d="M302.763 177.21H301.252C300.794 177.21 300.423 177.542 300.423 177.952C300.423 178.362 300.794 178.694 301.252 178.694H302.763C303.221 178.694 303.592 178.362 303.592 177.952C303.592 177.542 303.221 177.21 302.763 177.21Z" fill="white"/>
<path d="M307.659 177.21H306.148C305.69 177.21 305.319 177.542 305.319 177.952C305.319 178.362 305.69 178.694 306.148 178.694H307.659C308.117 178.694 308.488 178.362 308.488 177.952C308.488 177.542 308.117 177.21 307.659 177.21Z" fill="white"/>
<path d="M298.063 177.086H288.674C288.216 177.086 287.845 177.419 287.845 177.828C287.845 178.238 288.216 178.57 288.674 178.57H298.063C298.521 178.57 298.893 178.238 298.893 177.828C298.893 177.419 298.521 177.086 298.063 177.086Z" fill="white"/>
<path d="M321.101 177.086H311.711C311.253 177.086 310.882 177.419 310.882 177.828C310.882 178.238 311.253 178.57 311.711 178.57H321.101C321.559 178.57 321.93 178.238 321.93 177.828C321.93 177.419 321.559 177.086 321.101 177.086Z" fill="white"/>
<path d="M290.093 180.559H288.582C288.124 180.559 287.753 180.892 287.753 181.301C287.753 181.711 288.124 182.043 288.582 182.043H290.093C290.551 182.043 290.922 181.711 290.922 181.301C290.922 180.892 290.551 180.559 290.093 180.559Z" fill="white"/>
<path d="M307.371 180.559H305.86C305.402 180.559 305.031 180.892 305.031 181.301C305.031 181.711 305.402 182.043 305.86 182.043H307.371C307.829 182.043 308.2 181.711 308.2 181.301C308.2 180.892 307.829 180.559 307.371 180.559Z" fill="white"/>
<path d="M312.266 180.559H310.755C310.297 180.559 309.926 180.892 309.926 181.301C309.926 181.711 310.297 182.043 310.755 182.043H312.266C312.724 182.043 313.095 181.711 313.095 181.301C313.095 180.892 312.724 180.559 312.266 180.559Z" fill="white"/>
<path d="M302.671 180.436H293.282C292.824 180.436 292.452 180.768 292.452 181.178C292.452 181.588 292.824 181.92 293.282 181.92H302.671C303.129 181.92 303.5 181.588 303.5 181.178C303.5 180.768 303.129 180.436 302.671 180.436Z" fill="white"/>
<path d="M293.548 193.878H292.037C291.579 193.878 291.208 194.21 291.208 194.62C291.208 195.03 291.579 195.362 292.037 195.362H293.548C294.006 195.362 294.378 195.03 294.378 194.62C294.378 194.21 294.006 193.878 293.548 193.878Z" fill="white"/>
<path d="M298.444 193.878H296.933C296.475 193.878 296.104 194.21 296.104 194.62C296.104 195.03 296.475 195.362 296.933 195.362H298.444C298.902 195.362 299.273 195.03 299.273 194.62C299.273 194.21 298.902 193.878 298.444 193.878Z" fill="white"/>
<path d="M311.886 194.002H302.496C302.038 194.002 301.667 194.334 301.667 194.744C301.667 195.153 302.038 195.486 302.496 195.486H311.886C312.344 195.486 312.715 195.153 312.715 194.744C312.715 194.334 312.344 194.002 311.886 194.002Z" fill="white"/>
<path d="M276.27 193.878H274.76C274.302 193.878 273.93 194.21 273.93 194.62C273.93 195.03 274.302 195.362 274.76 195.362H276.27C276.728 195.362 277.1 195.03 277.1 194.62C277.1 194.21 276.728 193.878 276.27 193.878Z" fill="white"/>
<path d="M288.849 194.002H279.459C279.001 194.002 278.63 194.334 278.63 194.744C278.63 195.153 279.001 195.486 279.459 195.486H288.849C289.307 195.486 289.678 195.153 289.678 194.744C289.678 194.334 289.307 194.002 288.849 194.002Z" fill="white"/>
<path d="M280.878 190.529H279.367C278.909 190.529 278.538 190.861 278.538 191.271C278.538 191.68 278.909 192.013 279.367 192.013H280.878C281.336 192.013 281.707 191.68 281.707 191.271C281.707 190.861 281.336 190.529 280.878 190.529Z" fill="white"/>
<path d="M298.156 190.529H296.645C296.187 190.529 295.816 190.861 295.816 191.271C295.816 191.68 296.187 192.013 296.645 192.013H298.156C298.614 192.013 298.985 191.68 298.985 191.271C298.985 190.861 298.614 190.529 298.156 190.529Z" fill="white"/>
<path d="M303.051 190.529H301.54C301.082 190.529 300.711 190.861 300.711 191.271C300.711 191.68 301.082 192.013 301.54 192.013H303.051C303.509 192.013 303.88 191.68 303.88 191.271C303.88 190.861 303.509 190.529 303.051 190.529Z" fill="white"/>
<path d="M293.456 190.652H284.067C283.609 190.652 283.237 190.984 283.237 191.394C283.237 191.804 283.609 192.136 284.067 192.136H293.456C293.914 192.136 294.285 191.804 294.285 191.394C294.285 190.984 293.914 190.652 293.456 190.652Z" fill="white"/>
<path d="M285.485 187.179H283.974C283.516 187.179 283.145 187.511 283.145 187.921C283.145 188.331 283.516 188.663 283.974 188.663H285.485C285.943 188.663 286.314 188.331 286.314 187.921C286.314 187.511 285.943 187.179 285.485 187.179Z" fill="white"/>
<path d="M302.763 187.179H301.252C300.794 187.179 300.423 187.511 300.423 187.921C300.423 188.331 300.794 188.663 301.252 188.663H302.763C303.221 188.663 303.592 188.331 303.592 187.921C303.592 187.511 303.221 187.179 302.763 187.179Z" fill="white"/>
<path d="M307.659 187.179H306.148C305.69 187.179 305.319 187.511 305.319 187.921C305.319 188.331 305.69 188.663 306.148 188.663H307.659C308.117 188.663 308.488 188.331 308.488 187.921C308.488 187.511 308.117 187.179 307.659 187.179Z" fill="white"/>
<path d="M298.063 187.303H288.674C288.216 187.303 287.845 187.635 287.845 188.045C287.845 188.455 288.216 188.787 288.674 188.787H298.063C298.521 188.787 298.893 188.455 298.893 188.045C298.893 187.635 298.521 187.303 298.063 187.303Z" fill="white"/>
<path d="M290.093 183.83H288.582C288.124 183.83 287.753 184.162 287.753 184.572C287.753 184.982 288.124 185.314 288.582 185.314H290.093C290.551 185.314 290.922 184.982 290.922 184.572C290.922 184.162 290.551 183.83 290.093 183.83Z" fill="white"/>
<path d="M307.371 183.83H305.86C305.402 183.83 305.031 184.162 305.031 184.572C305.031 184.982 305.402 185.314 305.86 185.314H307.371C307.829 185.314 308.2 184.982 308.2 184.572C308.2 184.162 307.829 183.83 307.371 183.83Z" fill="white"/>
<path d="M312.266 183.83H310.755C310.297 183.83 309.926 184.162 309.926 184.572C309.926 184.982 310.297 185.314 310.755 185.314H312.266C312.724 185.314 313.095 184.982 313.095 184.572C313.095 184.162 312.724 183.83 312.266 183.83Z" fill="white"/>
<path d="M302.671 183.954H293.282C292.824 183.954 292.452 184.286 292.452 184.696C292.452 185.105 292.824 185.438 293.282 185.438H302.671C303.129 185.438 303.5 185.105 303.5 184.696C303.5 184.286 303.129 183.954 302.671 183.954Z" fill="white"/>
<path d="M268.238 233.131L261.147 223.101L283.407 207.224L292.595 198.117C293.789 196.934 295.309 196.052 297.003 195.559C298.697 195.065 300.506 194.979 302.25 195.307C303.993 195.636 305.609 196.368 306.937 197.431C308.265 198.493 309.259 199.849 309.817 201.362C310.646 203.605 310.467 206.048 309.321 208.176C308.174 210.303 306.148 211.949 303.671 212.766L289.142 217.554L268.238 233.131Z" fill="#FFB6B6"/>
<path d="M101.836 160.408V209.156H140.006V160.408C140.007 160.057 139.882 159.716 139.649 159.434C139.417 159.151 139.09 158.943 138.715 158.84C138.539 158.787 138.354 158.762 138.168 158.764H103.679C103.437 158.763 103.198 158.805 102.974 158.888C102.751 158.97 102.548 159.091 102.377 159.244C102.205 159.397 102.069 159.578 101.977 159.778C101.884 159.978 101.836 160.192 101.836 160.408ZM116.732 177.158C116.742 176.197 117.176 175.278 117.939 174.602C118.702 173.926 119.733 173.546 120.807 173.546C121.881 173.546 122.912 173.926 123.675 174.602C124.438 175.278 124.872 176.197 124.881 177.158V182.814C124.876 183.778 124.444 184.7 123.681 185.38C122.917 186.06 121.884 186.441 120.807 186.441C119.73 186.441 118.696 186.06 117.933 185.38C117.169 184.7 116.738 183.778 116.732 182.814V177.158Z" fill="#2F2E41"/>
<path d="M101.719 207.597V212.298C101.72 212.541 101.828 212.775 102.02 212.947C102.212 213.12 102.472 213.218 102.744 213.22H139.098C139.37 213.219 139.631 213.121 139.823 212.948C140.015 212.775 140.123 212.541 140.123 212.298V207.597H101.719Z" fill="#3F3D56"/>
<path d="M41.7883 86.9632V175.97C41.7893 177.104 42.2934 178.192 43.1898 178.994C44.0863 179.796 45.3018 180.247 46.5696 180.248H193.992C195.26 180.247 196.475 179.796 197.372 178.994C198.268 178.192 198.772 177.104 198.773 175.97V86.9632C198.77 85.8299 198.265 84.7439 197.369 83.943C196.473 83.1421 195.259 82.6916 193.992 82.6902H46.5696C45.3029 82.6916 44.0885 83.1421 43.1924 83.943C42.2962 84.7439 41.7913 85.8299 41.7883 86.9632Z" fill="#3F3D56"/>
<path d="M45.2468 88.0706V174.872C45.2479 175.478 45.5175 176.059 45.9965 176.487C46.4754 176.916 47.1247 177.157 47.8021 177.158H192.765C193.442 177.157 194.092 176.916 194.571 176.487C195.049 176.059 195.319 175.478 195.32 174.872V88.0706C195.32 87.4639 195.051 86.8819 194.572 86.4524C194.093 86.0229 193.443 85.781 192.765 85.7796H47.8021C47.1239 85.781 46.474 86.0229 45.995 86.4524C45.5159 86.8819 45.2468 87.4639 45.2468 88.0706Z" fill="white"/>
<path d="M72.1494 212.901C72.2969 213.067 72.4845 213.2 72.6979 213.292C72.9114 213.383 73.1453 213.43 73.3819 213.429H159.625C159.861 213.429 160.094 213.381 160.307 213.291C160.52 213.2 160.707 213.067 160.856 212.904C161.005 212.74 161.11 212.548 161.166 212.343C161.221 212.138 161.225 211.924 161.177 211.718L159.838 206.028C159.782 205.796 159.663 205.58 159.49 205.4C159.318 205.22 159.098 205.082 158.85 204.997C158.67 204.934 158.479 204.902 158.287 204.902H74.7153C74.5226 204.902 74.3316 204.934 74.1522 204.997C73.9044 205.081 73.6842 205.22 73.5116 205.4C73.339 205.58 73.2196 205.796 73.1641 206.028L71.8253 211.718C71.7777 211.924 71.7821 212.138 71.8381 212.342C71.8942 212.547 72.0005 212.738 72.1494 212.901Z" fill="#2F2E41"/>
<path d="M188.06 97.7369H52.4193C52.2783 97.7341 52.1441 97.682 52.0455 97.5918C51.9469 97.5016 51.8917 97.3804 51.8917 97.2543C51.8917 97.1281 51.9469 97.007 52.0455 96.9167C52.1441 96.8265 52.2783 96.7745 52.4193 96.7717H188.06C188.201 96.7745 188.336 96.8265 188.434 96.9167C188.533 97.007 188.588 97.1281 188.588 97.2543C188.588 97.3804 188.533 97.5016 188.434 97.5918C188.336 97.682 188.201 97.7341 188.06 97.7369Z" fill="#3F3D56"/>
<path d="M61.6525 94.3076C63.3984 94.3076 64.8137 93.0131 64.8137 91.4163C64.8137 89.8194 63.3984 88.5249 61.6525 88.5249C59.9067 88.5249 58.4914 89.8194 58.4914 91.4163C58.4914 93.0131 59.9067 94.3076 61.6525 94.3076Z" fill="#3F3D56"/>
<path d="M72.573 94.3076C74.3189 94.3076 75.7342 93.0131 75.7342 91.4163C75.7342 89.8194 74.3189 88.5249 72.573 88.5249C70.8271 88.5249 69.4118 89.8194 69.4118 91.4163C69.4118 93.0131 70.8271 94.3076 72.573 94.3076Z" fill="#3F3D56"/>
<path d="M83.4934 94.3076C85.2393 94.3076 86.6546 93.0131 86.6546 91.4163C86.6546 89.8194 85.2393 88.5249 83.4934 88.5249C81.7476 88.5249 80.3322 89.8194 80.3322 91.4163C80.3322 93.0131 81.7476 94.3076 83.4934 94.3076Z" fill="#3F3D56"/>
<path d="M181.484 89.2399H173.728C173.575 89.2431 173.429 89.2999 173.322 89.398C173.215 89.4962 173.155 89.6279 173.155 89.7651C173.155 89.9024 173.215 90.0341 173.322 90.1323C173.429 90.2304 173.575 90.2872 173.728 90.2904H181.484C181.639 90.2884 181.786 90.2322 181.894 90.1339C182.003 90.0356 182.063 89.9032 182.063 89.7651C182.063 89.6271 182.003 89.4946 181.894 89.3964C181.786 89.2981 181.639 89.2419 181.484 89.2399Z" fill="#3F3D56"/>
<path d="M181.485 91.2125H173.728C173.575 91.2155 173.429 91.2722 173.321 91.3703C173.214 91.4685 173.154 91.6004 173.154 91.7377C173.154 91.875 173.214 92.0069 173.321 92.105C173.429 92.2032 173.575 92.2599 173.728 92.2629H181.485C181.639 92.2612 181.787 92.2052 181.895 92.1068C182.004 92.0085 182.065 91.8759 182.065 91.7377C182.065 91.5995 182.004 91.4668 181.895 91.3685C181.787 91.2702 181.639 91.2141 181.485 91.2125Z" fill="#3F3D56"/>
<path d="M181.484 93.185H173.728C173.575 93.1882 173.429 93.2449 173.322 93.3431C173.215 93.4412 173.155 93.573 173.155 93.7102C173.155 93.8474 173.215 93.9792 173.322 94.0773C173.429 94.1755 173.575 94.2322 173.728 94.2354H181.484C181.639 94.2335 181.786 94.1773 181.894 94.079C182.003 93.9807 182.063 93.8482 182.063 93.7102C182.063 93.5722 182.003 93.4397 181.894 93.3414C181.786 93.2431 181.639 93.1869 181.484 93.185Z" fill="#3F3D56"/>
<path d="M368.474 209.66C368.708 210.27 369.152 210.797 369.743 211.167C370.333 211.537 371.039 211.73 371.759 211.719L385.833 211.394C386.559 211.382 387.26 211.159 387.833 210.76C388.406 210.361 388.819 209.807 389.01 209.181L391.002 190.127C391.709 190.413 392.478 190.555 393.253 190.541C393.927 190.526 394.591 190.392 395.207 190.147C395.823 189.903 396.379 189.552 396.844 189.115C397.308 188.678 397.672 188.163 397.914 187.601C398.157 187.038 398.273 186.438 398.256 185.835C398.239 185.232 398.089 184.638 397.816 184.087C397.542 183.536 397.15 183.038 396.662 182.623C396.173 182.207 395.598 181.882 394.969 181.665C394.34 181.448 393.67 181.344 392.996 181.36C392.686 181.359 392.377 181.388 392.073 181.445C391.744 181.126 391.343 180.873 390.897 180.7C390.451 180.528 389.97 180.442 389.484 180.446L367.835 180.946C367.656 180.952 367.477 180.972 367.301 181.005C366.827 181.085 366.376 181.254 365.981 181.502C365.585 181.75 365.254 182.071 365.008 182.443C364.763 182.815 364.61 183.23 364.559 183.659C364.508 184.089 364.56 184.524 364.712 184.934L368.474 209.66ZM391.41 188.833L392.828 184.293C392.989 183.768 392.993 183.215 392.838 182.689C392.907 182.689 392.968 182.66 393.037 182.659C394.008 182.641 394.948 182.969 395.651 183.57C396.353 184.171 396.76 184.997 396.783 185.866C396.806 186.736 396.442 187.578 395.772 188.208C395.102 188.838 394.18 189.204 393.209 189.227C392.58 189.244 391.959 189.108 391.41 188.833Z" fill="#2F2E41"/>
<path d="M367.301 181.005C367.762 183.365 372.948 185.024 379.183 184.735C384.917 184.499 389.605 182.698 390.464 180.563C390.146 180.479 389.815 180.439 389.484 180.446L367.835 180.946C367.656 180.952 367.477 180.972 367.301 181.005Z" fill="#3F3D56"/>
<path d="M380.326 199.19C380.354 199.183 380.382 199.173 380.406 199.158L383.462 197.368C383.499 197.347 383.53 197.317 383.551 197.283C383.572 197.248 383.583 197.209 383.583 197.17C383.583 197.13 383.572 197.091 383.551 197.057C383.53 197.022 383.5 196.992 383.463 196.971L380.286 195.109C380.257 195.092 380.224 195.08 380.19 195.074C380.155 195.068 380.12 195.068 380.086 195.075C380.052 195.081 380.019 195.093 379.99 195.111C379.961 195.128 379.937 195.151 379.917 195.177C379.898 195.203 379.885 195.233 379.879 195.263C379.872 195.294 379.872 195.326 379.88 195.356C379.887 195.387 379.901 195.416 379.92 195.442C379.94 195.467 379.965 195.489 379.995 195.506L382.832 197.169L380.115 198.761C380.063 198.791 380.024 198.838 380.006 198.892C379.988 198.946 379.992 199.003 380.018 199.055C380.043 199.106 380.088 199.148 380.144 199.173C380.201 199.198 380.265 199.204 380.326 199.19Z" fill="#38BDF8"/>
<path d="M375.499 199.389C375.55 199.377 375.596 199.352 375.631 199.317C375.667 199.282 375.689 199.238 375.697 199.191C375.704 199.144 375.695 199.096 375.672 199.054C375.648 199.011 375.611 198.976 375.566 198.952L372.748 197.507L375.471 195.698C375.499 195.679 375.523 195.656 375.541 195.629C375.559 195.602 375.57 195.573 375.576 195.542C375.581 195.511 375.579 195.479 375.57 195.449C375.562 195.419 375.547 195.39 375.526 195.365C375.505 195.34 375.479 195.319 375.449 195.303C375.419 195.287 375.386 195.277 375.352 195.272C375.317 195.268 375.282 195.269 375.248 195.277C375.214 195.284 375.183 195.298 375.155 195.316L372.106 197.343C372.071 197.366 372.042 197.397 372.024 197.433C372.005 197.468 371.996 197.508 371.999 197.547C372.002 197.587 372.015 197.625 372.038 197.658C372.062 197.692 372.094 197.72 372.132 197.739L375.301 199.365C375.361 199.395 375.432 199.404 375.499 199.389Z" fill="#38BDF8"/>
<path d="M380.022 200.758C380.048 200.752 380.072 200.743 380.095 200.731C380.125 200.715 380.15 200.693 380.171 200.668C380.192 200.643 380.207 200.614 380.215 200.584C380.223 200.554 380.225 200.522 380.219 200.491C380.214 200.46 380.202 200.431 380.184 200.404L375.851 194.031C375.814 193.977 375.755 193.939 375.687 193.924C375.618 193.909 375.546 193.919 375.486 193.952C375.426 193.985 375.383 194.038 375.366 194.099C375.349 194.16 375.361 194.225 375.397 194.278L379.73 200.652C379.759 200.695 379.804 200.729 379.856 200.748C379.909 200.767 379.967 200.771 380.022 200.758Z" fill="#38BDF8"/>
<path d="M136.447 123.974H112.97C112.012 123.974 111.236 124.668 111.236 125.525V127.577C111.236 128.434 112.012 129.129 112.97 129.129H136.447C137.404 129.129 138.181 128.434 138.181 127.577V125.525C138.181 124.668 137.404 123.974 136.447 123.974Z" fill="#38BDF8"/>
<path d="M150.131 134.284H99.2859C98.3281 134.284 97.5518 134.979 97.5518 135.835V137.888C97.5518 138.744 98.3281 139.439 99.2859 139.439H150.131C151.089 139.439 151.865 138.744 151.865 137.888V135.835C151.865 134.979 151.089 134.284 150.131 134.284Z" fill="#E6E6E6"/>
<path d="M150.131 144.594H99.2859C98.3281 144.594 97.5518 145.289 97.5518 146.146V148.198C97.5518 149.055 98.3281 149.749 99.2859 149.749H150.131C151.089 149.749 151.865 149.055 151.865 148.198V146.146C151.865 145.289 151.089 144.594 150.131 144.594Z" fill="#E6E6E6"/>
<path d="M154.441 179.119L154.556 179.444L154.562 179.455L158.029 188.884L162.016 199.75L169.519 220.17L169.592 223.342V223.353L170.149 248.87L168.604 252.329L170.343 258.001C170.343 258.001 169.543 249.427 165.253 254.351C162.823 257.149 159.98 260.012 157.647 262.696C161.047 263.926 164.501 265.04 168.01 266.036C168.768 266.253 169.531 266.459 170.295 266.665C170.459 266.708 170.622 266.751 170.786 266.795C182.417 269.872 194.442 271.602 206.566 271.94C207.196 271.957 207.815 271.967 208.415 271.978C208.627 271.984 208.833 271.989 209.039 271.989C209.718 271.995 210.39 272 211.069 272C212.439 272 213.802 271.982 215.16 271.946C225.207 271.692 235.196 270.484 244.958 268.34C244.892 264.734 244.71 260.521 244.449 256.021C244.328 253.814 241.607 251.423 241.443 249.113C241.328 247.378 243.771 245.746 243.643 243.984C242.819 233.134 241.789 237.299 241.025 229.616C240.946 228.862 240.874 228.141 240.807 227.452C240.316 222.518 239.977 219.433 239.977 219.433L243.237 201.046L248.358 172.178L247.964 171.598L247.522 171.403L220.511 159.442L219.044 156.08C218.617 155.111 217.876 154.279 216.916 153.691C215.955 153.102 214.821 152.784 213.657 152.778L195.864 152.713C194.94 152.709 194.029 152.902 193.206 153.277C192.383 153.651 191.671 154.196 191.13 154.865L186.312 160.835L154.441 179.119Z" fill="#3F3D56"/>
<path d="M173.622 215.626L169.592 223.342L166.841 228.612L162.107 250.784L159.738 253.034L157.708 245.068L136.459 249.289C135.762 245.824 136.272 249.406 135.842 245.606C135.963 245.497 136.09 245.389 136.218 245.28C136.557 244.998 136.842 244.733 136.836 244.478C136.593 231.367 137.321 209.055 143.393 195.537C144.344 193.33 145.598 191.237 147.126 189.307C147.247 189.161 147.363 189.014 147.478 188.868C150.278 185.36 152.047 181.906 154.556 179.449V179.444C154.572 179.433 154.586 179.42 154.599 179.406C154.608 179.402 154.616 179.397 154.623 179.39L171.858 171.213L172.598 189.8L173.125 203.161L173.622 215.626Z" fill="#3F3D56"/>
<path d="M235.771 217.818L240.805 227.455L242.562 230.811L247.294 252.98L249.655 255.225L251.69 247.261L252.646 247.085L269.89 243.89L274.916 258.171C276.049 256.483 276.495 254.496 276.179 252.547C275.864 250.598 274.805 248.806 273.183 247.474C272.84 247.196 272.554 246.926 272.562 246.67C272.848 231.249 271.794 203.092 262.273 191.503C259.25 187.825 257.435 184.162 254.796 181.603C254.788 181.595 254.788 181.588 254.779 181.588L248.356 172.178L247.964 171.6L247.522 171.403L235.771 217.818Z" fill="#3F3D56"/>
<path d="M205.274 148.182C218.348 148.182 228.946 138.7 228.946 127.003C228.946 115.306 218.348 105.824 205.274 105.824C192.201 105.824 181.602 115.306 181.602 127.003C181.602 138.7 192.201 148.182 205.274 148.182Z" fill="#FFB6B6"/>
<path d="M237.269 112.21C237.086 112.034 236.865 111.894 236.619 111.797C236.373 111.699 236.109 111.648 235.84 111.644L236.196 110.76C236.312 110.482 236.344 110.18 236.287 109.888C236.23 109.595 236.088 109.321 235.873 109.093C235.659 108.866 235.382 108.694 235.069 108.594C234.756 108.494 234.419 108.471 234.092 108.526L232.796 108.749L232.918 107.975C232.965 107.686 232.927 107.392 232.808 107.12C232.689 106.849 232.493 106.61 232.24 106.426C231.986 106.243 231.684 106.122 231.362 106.075C231.041 106.028 230.711 106.057 230.405 106.159C230.128 106.257 229.829 106.298 229.531 106.279C229.233 106.26 228.944 106.182 228.684 106.05C228.423 105.922 228.197 105.744 228.021 105.53C227.845 105.316 227.723 105.07 227.664 104.809L227.213 102.86L227.165 102.756C224.965 99.4761 220.737 97.0901 215.562 96.2155C210.956 95.4312 206.233 95.8305 201.681 96.206C199.874 96.3581 197.834 96.5292 196.134 97.4608C194.689 98.2593 193.467 99.8564 193.717 101.468C189.228 100.237 184.415 102.694 182.03 105.793C179.203 109.481 178.741 114.101 178.667 117.714C178.465 126.26 180.436 133.252 184.51 138.499C184.808 138.879 184.882 139.673 185.472 139.939L185.35 139.763C186.009 140.058 186.678 140.533 186.428 141.042C185.711 142.506 190.476 145.743 193.834 146.812C199.959 148.766 208.103 148.599 213.83 147.896L214.032 146.684C216.099 146.432 217.554 145.952 217.963 145.201C218.686 144.65 219.302 144.155 219.839 143.699L219.844 143.694C219.855 143.685 219.876 143.67 219.887 143.661C222.474 141.441 223.074 140.177 223.345 138.252C223.605 136.365 223.143 134.449 222.67 132.724C232.626 134.103 218.75 123.237 228.025 121.136C228.132 121.107 228.24 121.083 228.349 121.065C228.62 121.008 228.891 120.951 229.152 120.884C230.406 120.579 231.608 120.12 232.722 119.52C235.314 118.108 236.169 116.236 237.508 114.125C237.701 113.825 237.782 113.477 237.739 113.132C237.696 112.788 237.532 112.465 237.269 112.21Z" fill="#2F2E41"/>
<path d="M288.997 219.326C288.992 220.157 288.981 221.322 288.939 222.762C288.933 222.962 288.928 223.166 288.923 223.375C288.854 226.023 288.785 228.242 288.673 230.709C288.668 230.88 288.663 231.047 288.652 231.218C288.503 234.659 288.269 238.666 287.866 245.011C287.117 256.733 285.81 246.623 284.497 250.734C284.434 250.939 284.365 251.181 284.301 251.466C284.102 252.501 283.767 253.511 283.302 254.475C282.606 254.846 281.889 255.202 281.182 255.559C279.169 256.561 277.124 257.526 275.062 258.444C273.904 258.957 272.741 259.461 271.572 259.946C271.386 260.022 271.206 260.098 271.025 260.169C265.04 262.646 258.872 264.752 252.564 266.472C251.331 266.804 250.104 267.128 248.861 267.427C247.565 267.75 246.269 268.054 244.956 268.34C235.195 270.484 225.206 271.693 215.158 271.947C213.804 271.985 212.438 272 211.068 272C210.388 272 209.718 271.995 209.038 271.99C208.831 271.99 208.624 271.985 208.417 271.981C207.817 271.966 207.195 271.957 206.568 271.942C194.444 271.604 182.419 269.874 170.788 266.795L170.294 266.667C169.529 266.457 168.769 266.253 168.01 266.034C164.504 265.041 161.049 263.929 157.645 262.698C155.047 261.761 152.48 260.757 149.942 259.684C149.919 259.679 149.897 259.669 149.878 259.656C149.347 259.437 148.81 259.209 148.279 258.976C148.21 258.943 148.136 258.909 148.061 258.876C146.08 258.011 144.119 257.105 142.18 256.157C140.549 252.806 138.254 252.165 136.831 249.218C136.416 248.342 136.117 247.427 135.938 246.49C135.938 246.48 135.933 246.471 135.933 246.456C136.082 248.224 135.301 243.319 135.927 246.437C135.922 246.38 135.917 246.319 135.912 246.247C135.896 246.076 135.874 245.867 135.842 245.606C134.02 229.687 134.137 211.483 133.346 196.482C133.292 195.513 133.238 194.584 133.181 193.697C133.165 193.402 133.144 193.112 133.122 192.827C133.16 192.742 133.202 192.651 133.25 192.566C133.26 192.541 133.273 192.517 133.287 192.494C133.303 192.465 133.321 192.436 133.34 192.409C133.351 192.395 133.367 192.376 133.377 192.361C133.385 192.345 133.394 192.329 133.404 192.314C133.452 192.247 133.505 192.176 133.563 192.109C133.59 192.081 133.611 192.057 133.638 192.033C133.656 192.009 133.677 191.987 133.702 191.967C133.718 191.944 133.737 191.923 133.76 191.905C133.781 191.886 133.802 191.862 133.829 191.838C133.84 191.824 133.855 191.811 133.872 191.8C133.914 191.757 133.96 191.717 134.01 191.682C134.199 191.526 134.402 191.383 134.615 191.254C134.69 191.211 134.769 191.168 134.844 191.121C135.379 190.834 135.943 190.592 136.528 190.398C136.73 190.332 136.932 190.27 137.149 190.203C137.229 190.184 137.303 190.161 137.383 190.137C137.5 190.104 137.617 190.07 137.739 190.047C138.345 189.885 138.998 189.747 139.705 189.619C139.79 189.604 139.88 189.59 139.97 189.571C140.098 189.547 140.231 189.528 140.363 189.509C140.544 189.481 140.73 189.452 140.916 189.424C142.494 189.2 144.284 189.034 146.26 188.925C146.446 188.915 146.632 188.906 146.818 188.896C147.036 188.887 147.254 188.877 147.477 188.868C147.663 188.858 147.854 188.854 148.045 188.849C148.231 188.839 148.423 188.835 148.619 188.83C149.156 188.815 149.708 188.801 150.271 188.792C151.876 188.763 153.565 188.773 155.339 188.806C156.163 188.825 157.002 188.844 157.863 188.877C157.921 188.877 157.974 188.882 158.028 188.882C158.777 188.906 159.531 188.934 160.307 188.972C160.849 188.996 161.396 189.02 161.943 189.048C162.458 189.077 162.979 189.105 163.505 189.139C163.914 189.158 164.323 189.186 164.737 189.21C165.088 189.234 165.439 189.258 165.789 189.277L166.267 189.305C166.528 189.324 166.788 189.338 167.054 189.362C167.638 189.405 168.222 189.448 168.817 189.49C169.407 189.538 170.007 189.586 170.608 189.633C171.208 189.681 171.814 189.733 172.419 189.785C172.483 189.79 172.541 189.795 172.6 189.799C173.152 189.852 173.705 189.899 174.263 189.951C174.39 189.961 174.523 189.97 174.65 189.985C175.182 190.033 175.724 190.089 176.261 190.14C176.426 190.155 176.59 190.171 176.755 190.187C177.175 190.228 177.59 190.263 178.013 190.308C178.571 190.365 179.14 190.417 179.692 190.484C180.122 190.527 180.553 190.569 180.983 190.617C181.658 190.688 182.343 190.764 183.028 190.845C183.289 190.874 183.549 190.902 183.809 190.935C185.764 191.154 187.74 191.396 189.749 191.648C192.793 192.033 195.885 192.452 198.998 192.903C202.116 193.355 205.252 193.832 208.406 194.334C209.203 194.462 210 194.59 210.802 194.724C211.163 194.785 211.525 194.847 211.886 194.909C212.502 195.009 213.118 195.113 213.735 195.218C214.351 195.322 214.967 195.427 215.583 195.536C216.317 195.665 217.055 195.793 217.788 195.921C222.617 196.777 227.42 197.69 232.105 198.645C232.876 198.802 233.646 198.963 234.411 199.12C235.941 199.439 237.457 199.762 238.958 200.09C239.373 200.175 239.782 200.266 240.191 200.356C241.211 200.584 242.231 200.812 243.235 201.045L243.41 201.088C244.149 201.25 244.871 201.416 245.594 201.587C247.299 201.986 248.976 202.39 250.625 202.799C251.719 203.07 252.801 203.344 253.871 203.621C255.47 204.035 257.037 204.453 258.562 204.876C258.939 204.981 259.316 205.085 259.688 205.185C260.804 205.494 261.903 205.808 262.971 206.122C263.821 206.369 264.65 206.621 265.468 206.873C266.286 207.124 267.088 207.376 267.875 207.628C268.379 207.79 268.879 207.961 269.378 208.123C270.095 208.36 270.802 208.598 271.492 208.836C271.705 208.907 271.912 208.983 272.119 209.054C272.252 209.106 272.38 209.149 272.507 209.197C272.757 209.287 273.012 209.373 273.256 209.463C273.506 209.548 273.75 209.639 273.995 209.734C274.234 209.819 274.478 209.91 274.712 210C274.951 210.086 275.185 210.176 275.418 210.271C275.615 210.342 275.806 210.418 275.992 210.494C276.369 210.642 276.746 210.789 277.113 210.941C277.294 211.017 277.474 211.089 277.655 211.165L278.069 211.336C278.128 211.364 278.186 211.388 278.245 211.412C278.377 211.469 278.516 211.531 278.648 211.588C278.956 211.716 279.259 211.854 279.557 211.982C279.955 212.163 280.343 212.343 280.715 212.519C281.092 212.7 281.459 212.88 281.809 213.056C281.868 213.085 281.921 213.113 281.979 213.142C282.059 213.18 282.139 213.223 282.218 213.261C282.489 213.399 282.75 213.541 283.01 213.679C283.52 213.959 284.003 214.235 284.455 214.511C284.556 214.573 284.651 214.634 284.752 214.691C285.087 214.905 285.406 215.114 285.703 215.328C285.703 215.333 285.703 215.333 285.709 215.333C285.81 215.4 285.905 215.471 286.001 215.537C286.081 215.604 286.166 215.661 286.245 215.728C286.521 215.941 286.777 216.146 287.01 216.355C287.089 216.419 287.163 216.488 287.233 216.559C287.264 216.582 287.293 216.608 287.318 216.635C287.425 216.73 287.52 216.825 287.611 216.921C287.625 216.934 287.637 216.948 287.648 216.963C287.775 217.096 287.892 217.23 288.004 217.363C288.057 217.429 288.115 217.496 288.163 217.562C288.227 217.643 288.291 217.729 288.344 217.809C288.392 217.876 288.434 217.947 288.477 218.014C288.589 218.185 288.685 218.365 288.763 218.551C288.823 218.677 288.871 218.807 288.907 218.941C288.947 219.067 288.977 219.196 288.997 219.326Z" fill="#2F2E41"/>
<path opacity="0.2" d="M288.997 219.326C288.992 220.157 288.981 221.322 288.939 222.762C288.933 222.962 288.923 223.166 288.917 223.375C288.864 225.395 288.785 227.891 288.673 230.709C288.668 230.88 288.662 231.047 288.652 231.218C288.503 234.659 288.269 238.666 287.866 245.011C287.117 256.733 285.81 246.623 284.497 250.734C280.853 248.728 276.858 246.627 272.587 244.47C271.816 244.08 271.039 243.688 270.255 243.296C261.712 239.032 252.171 234.564 242.21 230.139C241.817 229.963 241.418 229.787 241.025 229.616C218.208 219.525 193.303 209.71 173.126 203.16C169.232 201.896 165.513 200.755 162.017 199.752C154.654 197.647 148.29 196.173 143.392 195.536C138.292 194.871 134.769 195.109 133.346 196.482C133.292 195.513 133.238 194.584 133.181 193.697C133.16 193.402 133.138 193.112 133.117 192.827C133.15 192.749 133.192 192.674 133.234 192.599C133.24 192.588 133.244 192.577 133.25 192.566C133.26 192.541 133.273 192.517 133.287 192.494C133.303 192.465 133.321 192.436 133.34 192.409C133.358 192.375 133.379 192.343 133.404 192.314C133.452 192.247 133.505 192.176 133.563 192.109C133.606 192.06 133.652 192.012 133.701 191.967C133.718 191.944 133.737 191.923 133.76 191.905C133.781 191.886 133.802 191.862 133.829 191.838C133.84 191.823 133.855 191.811 133.871 191.8C133.914 191.757 133.96 191.717 134.01 191.682C134.199 191.526 134.402 191.383 134.615 191.254C134.69 191.211 134.769 191.168 134.844 191.121C135.379 190.834 135.943 190.592 136.528 190.398C136.73 190.332 136.932 190.27 137.149 190.203C137.229 190.184 137.303 190.161 137.383 190.137C137.5 190.104 137.617 190.07 137.739 190.047C138.345 189.885 138.998 189.747 139.705 189.619C139.917 189.581 140.14 189.543 140.363 189.509C140.544 189.481 140.73 189.452 140.916 189.424C142.494 189.2 144.284 189.034 146.26 188.925C146.446 188.915 146.632 188.906 146.818 188.896C147.036 188.887 147.254 188.877 147.477 188.868C147.663 188.858 147.854 188.853 148.045 188.849C148.231 188.839 148.423 188.834 148.619 188.83C149.156 188.815 149.708 188.801 150.271 188.792C151.876 188.768 153.565 188.777 155.339 188.811C156.163 188.825 157.002 188.849 157.863 188.882C157.916 188.882 157.974 188.887 158.028 188.887C158.777 188.906 159.536 188.939 160.307 188.972C160.848 188.996 161.396 189.02 161.943 189.048C162.458 189.077 162.979 189.105 163.505 189.139C163.914 189.158 164.323 189.186 164.737 189.21C165.088 189.234 165.438 189.257 165.789 189.277C166.209 189.305 166.628 189.334 167.054 189.362C167.638 189.405 168.222 189.448 168.817 189.49C169.407 189.538 170.007 189.585 170.608 189.633C171.208 189.681 171.814 189.733 172.419 189.785C172.483 189.79 172.541 189.795 172.6 189.799C173.152 189.852 173.705 189.899 174.263 189.951C177.354 190.232 180.537 190.56 183.809 190.935C185.764 191.159 187.744 191.398 189.749 191.653C192.793 192.038 195.885 192.456 198.998 192.903C202.116 193.355 205.252 193.832 208.406 194.334C209.203 194.462 210 194.59 210.802 194.724C211.78 194.885 212.757 195.05 213.735 195.218C214.351 195.322 214.967 195.427 215.583 195.536C216.317 195.665 217.055 195.793 217.788 195.921C222.617 196.777 227.42 197.69 232.105 198.645C232.876 198.802 233.646 198.963 234.411 199.12C235.941 199.439 237.457 199.762 238.958 200.09C239.373 200.18 239.782 200.27 240.191 200.361C241.216 200.589 242.231 200.817 243.235 201.045V201.05C243.294 201.059 243.352 201.074 243.41 201.088C244.144 201.254 244.871 201.421 245.594 201.592C247.299 201.991 248.976 202.393 250.625 202.799C251.719 203.075 252.803 203.346 253.871 203.621C255.47 204.04 257.037 204.458 258.562 204.876C258.939 204.981 259.316 205.085 259.688 205.185C260.804 205.499 261.898 205.811 262.971 206.122C263.821 206.369 264.65 206.621 265.468 206.873C266.286 207.124 267.088 207.376 267.875 207.628C268.385 207.79 268.884 207.956 269.378 208.118C270.101 208.355 270.802 208.593 271.492 208.836C271.705 208.907 271.912 208.983 272.119 209.054C272.507 209.187 272.884 209.325 273.256 209.463C273.506 209.549 273.75 209.639 273.995 209.734C274.234 209.819 274.478 209.91 274.712 210C274.951 210.086 275.185 210.176 275.418 210.271C275.615 210.342 275.806 210.418 275.992 210.494C276.369 210.642 276.746 210.789 277.113 210.941C277.294 211.017 277.474 211.089 277.655 211.165L278.069 211.336C278.128 211.364 278.186 211.388 278.245 211.412C278.696 211.602 279.132 211.792 279.557 211.982C279.955 212.163 280.343 212.343 280.715 212.519C281.156 212.728 281.576 212.933 281.979 213.142C282.059 213.18 282.139 213.223 282.218 213.261C282.489 213.399 282.75 213.541 283.01 213.679C283.52 213.959 284.003 214.235 284.455 214.511C284.901 214.786 285.316 215.057 285.703 215.328C285.703 215.333 285.703 215.333 285.709 215.333C285.895 215.466 286.075 215.599 286.245 215.728C286.522 215.941 286.777 216.146 287.01 216.355C287.089 216.419 287.163 216.488 287.233 216.559C287.264 216.582 287.293 216.608 287.318 216.635C287.43 216.745 287.542 216.854 287.648 216.963C287.775 217.096 287.892 217.229 288.004 217.363C288.057 217.429 288.115 217.496 288.163 217.562C288.227 217.643 288.291 217.729 288.344 217.809C288.392 217.876 288.434 217.947 288.477 218.014C288.589 218.185 288.685 218.365 288.763 218.551C288.822 218.678 288.87 218.808 288.907 218.941C288.947 219.067 288.977 219.196 288.997 219.326Z" fill="black"/>
</g>
<defs>
<linearGradient id="paint0_linear_15_177" x1="201.609" y1="15.5542" x2="201.609" y2="258.418" gradientUnits="userSpaceOnUse">
<stop stop-color="#38BDF8"/>
<stop offset="1" stop-color="#5B86E5"/>
</linearGradient>
<linearGradient id="paint1_linear_15_177" x1="299.124" y1="161.82" x2="299.124" y2="203.642" gradientUnits="userSpaceOnUse">
<stop stop-color="#38BDF8"/>
<stop offset="1" stop-color="#5B86E5"/>
</linearGradient>
<clipPath id="clip0_15_177">
<rect width="418" height="272" fill="white"/>
</clipPath>
</defs>
</svg>
